<?xml version="1.0" standalone="no"?>
<!DOCTYPE svg PUBLIC "-//W3C//DTD SVG 20010904//EN"
 "http://www.w3.org/TR/2001/REC-SVG-20010904/DTD/svg10.dtd">
<svg version="1.0" xmlns="http://www.w3.org/2000/svg"
 width="16.000000pt" height="16.000000pt" viewBox="0 0 16.000000 16.000000"
 preserveAspectRatio="xMidYMid meet">
<metadata>
Created by potrace 1.11, written by Peter Selinger 2001-2013
</metadata>
<g transform="translate(0.000000,16.000000) scale(0.007273,-0.007273)"
fill="#000000" stroke="none">
<path d="M310 1508 c-70 -35 -87 -80 -101 -262 -15 -180 0 -427 29 -485 37
-77 145 -106 220 -61 l34 21 5 -21 c5 -17 12 -21 42 -18 l36 3 0 225 0 225
-97 3 -98 3 0 -46 0 -45 45 0 45 0 0 -118 c0 -133 -6 -150 -60 -158 -79 -12
-89 26 -89 321 0 275 7 312 66 330 39 11 69 -30 77 -108 l8 -67 49 0 49 0 0
73 c0 97 -27 153 -90 185 -24 12 -63 22 -85 22 -22 0 -61 -10 -85 -22z"/>
<path d="M715 1516 c-56 -25 -78 -60 -86 -134 -11 -93 -7 -102 45 -102 l44 0
4 61 c5 68 24 92 68 87 38 -5 52 -41 47 -132 -3 -71 -7 -82 -31 -103 -18 -16
-40 -23 -67 -23 l-39 0 0 -44 0 -43 53 -6 c64 -8 82 -27 91 -101 9 -69 -3
-173 -21 -192 -18 -18 -77 -18 -92 -1 -6 8 -14 46 -17 86 l-7 72 -46 -3 -46
-3 1 -83 c1 -95 16 -124 75 -154 38 -20 123 -24 166 -7 36 13 73 47 84 78 6
13 10 79 10 146 1 141 -10 174 -68 204 -34 17 -35 19 -15 25 42 14 65 70 69
175 5 107 -8 147 -59 184 -34 26 -122 33 -163 13z"/>
<path d="M1417 1476 l-138 -51 -55 -95 c-103 -176 -97 -146 -68 -311 l24 -144
46 -42 c25 -23 79 -70 120 -103 l75 -60 144 0 144 0 118 98 118 97 -283 3
-282 2 -5 23 c-14 68 -35 197 -35 221 0 24 110 228 129 240 10 6 231 -75 257
-94 12 -8 24 -25 28 -38 4 -12 11 -20 16 -17 4 3 7 -3 6 -13 0 -9 4 -16 10
-15 7 1 11 -3 10 -10 -1 -14 106 -220 133 -255 17 -24 18 -23 35 80 10 56 22
118 27 137 8 32 3 45 -63 159 -39 68 -81 130 -92 137 -21 12 -269 106 -277
104 -2 -1 -66 -24 -142 -53z"/>
</g>
</svg>
