<?xml version="1.0" standalone="no"?>
<!DOCTYPE svg PUBLIC "-//W3C//DTD SVG 20010904//EN"
 "http://www.w3.org/TR/2001/REC-SVG-20010904/DTD/svg10.dtd">
<svg version="1.0" xmlns="http://www.w3.org/2000/svg"
 width="500.000000pt" height="500.000000pt" viewBox="0 0 500.000000 500.000000"
 preserveAspectRatio="xMidYMid meet">
<metadata>
Created by potrace 1.11, written by Peter Selinger 2001-2013
</metadata>
<g transform="translate(0.000000,500.000000) scale(0.100000,-0.100000)"
fill="#000000" stroke="none">
<path d="M144 4895 c-12 -8 -26 -27 -33 -42 -8 -21 -11 -619 -9 -2351 l3
-2324 33 -29 32 -29 2330 0 2330 0 32 29 33 29 3 2324 c2 1732 -1 2330 -9
2351 -26 62 165 57 -2389 57 -2032 0 -2338 -2 -2356 -15z m4554 -1277 l2
-1098 -1100 0 -1100 0 0 -1100 0 -1100 -1100 0 -1100 0 0 1100 0 1100 1100 0
1100 0 0 1093 c0 602 3 1097 7 1100 3 4 497 6 1097 5 l1091 -3 3 -1097z
m-3162 734 c102 -52 154 -164 154 -328 l0 -94 -70 0 -70 0 0 81 c0 92 -13 154
-40 187 -22 26 -78 52 -114 52 -48 0 -105 -31 -128 -69 l-23 -36 0 -440 0
-440 23 -36 c24 -39 81 -69 130 -69 50 1 107 34 128 76 16 33 20 66 22 212 l4
172 -71 0 -71 0 0 65 0 65 140 0 140 0 0 -229 c0 -266 -12 -330 -77 -402 -63
-69 -102 -84 -223 -84 -122 0 -164 16 -223 85 -69 81 -72 102 -72 585 0 483 3
504 72 585 61 71 115 90 238 87 69 -3 100 -8 131 -25z m2197 -2282 c95 -36
150 -116 168 -246 24 -171 -23 -305 -125 -357 l-28 -15 28 -15 c43 -22 80 -65
106 -122 20 -45 23 -64 22 -195 -1 -127 -4 -152 -24 -204 -45 -116 -137 -176
-269 -176 -133 0 -212 44 -262 145 -29 59 -33 78 -37 171 l-5 104 72 0 71 0 0
-80 c0 -144 44 -204 151 -205 66 0 101 20 134 76 17 29 20 52 20 169 0 118 -3
140 -21 175 -28 53 -68 75 -153 82 l-71 6 0 62 0 63 74 4 c84 4 117 21 151 79
17 29 20 52 20 144 0 119 -9 148 -59 194 -35 33 -116 40 -166 14 -51 -26 -80
-89 -80 -175 l0 -68 -71 0 -72 0 5 89 c9 157 75 254 198 292 51 15 168 10 223
-11z"/>
</g>
</svg>
