<?xml version="1.0" standalone="no"?>
<!DOCTYPE svg PUBLIC "-//W3C//DTD SVG 20010904//EN"
 "http://www.w3.org/TR/2001/REC-SVG-20010904/DTD/svg10.dtd">
<svg version="1.0" xmlns="http://www.w3.org/2000/svg"
 width="500.000000pt" height="500.000000pt" viewBox="0 0 500.000000 500.000000"
 preserveAspectRatio="xMidYMid meet">
<metadata>
Created by potrace 1.11, written by Peter Selinger 2001-2013
</metadata>
<g transform="translate(0.000000,500.000000) scale(0.100000,-0.100000)"
fill="#000000" stroke="none">
<path d="M189 4821 l-29 -29 0 -2292 0 -2291 25 -24 24 -25 2295 0 2294 0 26
31 26 31 0 2274 c0 2475 4 2315 -55 2342 -20 9 -558 12 -2301 12 l-2276 0 -29
-29z m4461 -1246 l0 -1075 -1075 0 -1075 0 0 -1075 0 -1075 -1075 0 -1075 0 0
1075 0 1075 1075 0 1075 0 0 1075 0 1075 1075 0 1075 0 0 -1075z m-3129 943
c157 -72 219 -197 219 -445 l0 -133 -130 0 -130 0 0 118 c0 190 -23 232 -130
240 -69 5 -99 -9 -130 -61 -19 -31 -20 -54 -20 -575 0 -584 1 -593 52 -625 41
-27 94 -31 144 -12 75 28 84 59 84 293 l0 192 -60 0 -60 0 0 125 0 125 190 0
190 0 0 -322 c0 -335 -7 -403 -46 -481 -77 -151 -261 -225 -464 -187 -162 31
-260 130 -296 299 -17 84 -20 1072 -3 1166 22 120 80 212 167 262 73 43 125
53 252 50 99 -3 123 -7 171 -29z m2300 -2304 c154 -45 236 -154 261 -345 14
-115 1 -252 -32 -326 -23 -53 -80 -117 -123 -139 l-28 -15 39 -27 c111 -76
151 -187 152 -417 0 -200 -33 -310 -119 -396 -83 -82 -142 -103 -296 -103
-141 0 -204 19 -277 83 -92 81 -128 186 -128 374 l0 128 128 -3 127 -3 5 -125
c6 -142 17 -171 75 -196 71 -29 151 -8 182 48 15 28 18 58 18 208 0 157 -2
178 -20 209 -35 59 -65 74 -160 79 l-85 5 0 122 0 123 89 4 c147 5 174 38 179
219 4 134 -8 190 -48 231 -25 24 -36 28 -88 28 -106 0 -142 -48 -142 -190 l0
-90 -131 0 -131 0 4 123 c6 147 27 212 95 287 47 52 96 83 168 106 58 18 220
17 286 -2z"/>
</g>
</svg>
